<?xml version="1.0" encoding="UTF-8" standalone="no"?>
<svg width="500px" height="500px" viewBox="0 0 500 500" version="1.1" xmlns="http://www.w3.org/2000/svg" xmlns:xlink="http://www.w3.org/1999/xlink" style="background: #FE6169;">
    <!-- Generator: Sketch 41.2 (35397) - http://www.bohemiancoding.com/sketch -->
    <title>profile_1x1_withTag</title>
    <desc>Created with Sketch.</desc>
    <defs></defs>
    <g id="Social-Media" stroke="none" stroke-width="1" fill="none" fill-rule="evenodd">
        <g id="profile_1x1_withTag" fill="#FFFFFF">
            <path d="M321.45148,319.966754 C317.703228,322.41908 313.089996,323.71737 309.630071,323.71737 C304.29602,323.71737 300.115552,320.976535 300.115552,313.764087 C300.115552,306.983855 305.881819,304.531804 314.387467,304.531804 C316.69381,304.531804 319.433191,304.676058 321.45148,304.820313 L321.45148,319.966754 Z M375.713866,320.832281 C371.100633,320.832281 369.947325,318.52421 369.947325,313.186796 L369.947325,234.28099 L349.620815,234.28099 L349.620815,312.033034 C349.620815,314.982449 349.638869,317.982503 349.984917,320.834744 C348.257963,321.26696 346.387667,321.697808 344.661535,321.697808 C342.643245,321.697808 341.057446,320.832281 341.057446,317.658683 L341.057446,287.365526 C341.057446,267.026199 333.272616,259.669222 313.810813,259.669222 C307.900108,259.669222 295.502319,261.400276 287.573325,266.160672 L291.754067,278.855062 C296.511463,277.26799 302.710221,275.825445 308.76509,275.825445 C316.405757,275.825445 321.45148,276.690972 321.45148,287.654309 L321.45148,294.722502 C316.26132,294.289739 311.64836,294.289739 307.756219,294.289739 C298.241152,294.289739 281.518456,297.463336 281.374293,315.92763 C281.374293,328.910529 289.591614,337.132758 302.710221,337.132758 C311.360033,337.132758 319.433191,333.81518 323.758097,330.208819 C326.352767,334.391924 330.389345,336.844249 337.020868,336.844249 C340.048028,336.844249 346.391223,336.267232 352.734419,332.805125 L351.297434,326.523625 C353.604597,332.663882 359.085821,337.132758 372.110052,337.132758 C374.560558,337.132758 380.615153,336.699995 386.958621,333.959161 L383.930914,319.8225 C379.894609,320.832281 377.587992,320.832281 375.713866,320.832281 L375.713866,320.832281 Z M258.625452,274.238646 C265.401138,274.238646 268.716899,279.720315 268.716899,288.519562 L268.716899,289.385088 L244.065209,289.385088 C244.786027,285.057729 247.380697,274.238646 258.625452,274.238646 L258.625452,274.238646 Z M262.373704,321.986316 C252.138367,321.986316 244.065209,316.360393 243.921046,300.348425 L282.988815,300.348425 C283.99796,296.453829 284.862941,290.250615 284.862941,285.923256 C284.862941,269.766759 275.348422,259.957731 258.049072,259.957731 C235.703998,259.957731 225.035897,277.123735 225.035897,296.886592 C225.035897,318.235701 232.388237,337.132758 259.202106,337.132758 C267.996082,337.132758 276.50173,335.545959 283.85407,332.372362 L280.393871,318.668464 C274.339003,320.976535 268.140245,321.986316 262.373704,321.986316 L262.373704,321.986316 Z M228.035429,321.553553 L229.765118,335.25745 L172.677455,335.25745 L170.947219,324.438642 L203.383739,275.248701 L173.830489,275.248701 L172.388854,261.400276 L224.14274,261.400276 L226.017139,272.651848 L193.436456,321.553553 L228.035429,321.553553 Z M102.472826,321.553553 C91.948888,321.553553 87.1914915,314.340831 87.1914915,307.128383 C87.1914915,300.49268 91.0839068,293.280232 98.0037561,289.96238 L119.051084,315.206358 C114.293961,319.678245 107.950766,321.553553 102.472826,321.553553 L102.472826,321.553553 Z M152.785076,273.805883 L137.215689,273.805883 C136.494871,283.759439 133.6116,294.722502 129.863349,302.079478 L105.211933,272.363613 C100.742863,267.026199 98.2920832,262.554311 98.2920832,258.803696 C98.2920832,253.177773 102.184225,251.302465 107.085785,251.302465 C113.861471,251.302465 122.655172,254.764845 125.68288,256.062862 L130.440003,242.070455 C120.636883,238.464095 112.275672,236.733041 104.202514,236.733041 C102.682642,236.733041 101.188484,236.832952 99.7337185,237.027846 L99.7337185,166.305126 L120.492993,166.305126 L120.651655,164.611573 L120.651655,226.313875 L140.834275,226.313875 L140.834275,173.950337 C143.861709,169.622704 149.33965,167.170378 157.412808,167.170378 C159.431097,167.170378 161.449386,167.459161 163.611839,168.035905 L166.9276,151.446919 C164.47682,150.869901 161.881877,150.725647 160.296078,150.725647 C149.628251,150.725647 142.708401,156.784333 138.960149,161.688984 L137.374351,152.312446 L120.651655,152.312446 L120.651655,152.4567 L99.7337185,152.4567 L99.7337185,150.292883 C99.7337185,141.493363 101.319517,136.444732 114.149798,136.444732 C118.042213,136.444732 123.087663,136.733241 127.989223,137.887002 L132.169965,123.461833 C125.538443,121.29829 118.763031,120 112.852326,120 C90.3630891,120 79.6949881,128.366483 79.6949881,148.417576 L79.6949881,152.600954 L66,153.610735 L66,165.439599 L79.5510981,166.305126 L79.5510981,257.072643 C79.5510981,265.583654 85.0290386,273.229139 89.498108,278.999043 C77.6766987,285.057729 68.882997,294.578248 68.882997,307.849382 C68.882997,327.756494 84.0201675,337.132758 101.607844,337.132758 C111.410691,337.132758 121.501864,333.526397 128.710041,325.880912 C135.197399,331.074072 146.730208,337.277013 153.217567,340.017847 L160.85796,326.602458 C155.52391,324.005878 145.5769,318.379956 139.954522,313.475305 C147.88379,302.944731 152.208422,288.808344 152.785076,273.805883 L152.785076,273.805883 Z M406.608083,165.295071 C413.383769,165.295071 416.69953,170.776739 416.69953,179.575986 L416.69953,180.441513 L392.04784,180.441513 C392.768658,176.114153 395.363328,165.295071 406.608083,165.295071 L406.608083,165.295071 Z M410.356335,213.042741 C400.120998,213.042741 392.04784,207.416818 391.903677,191.404849 L430.971446,191.404849 C431.98059,187.510254 432.845571,181.307039 432.845571,176.97968 C432.845571,160.823183 423.331052,151.014156 406.031429,151.014156 C383.686629,151.014156 373.018528,168.180159 373.018528,187.943017 C373.018528,209.292125 380.370868,228.189182 407.184737,228.189182 C415.978712,228.189182 424.48436,226.602384 431.8367,223.428786 L428.376502,209.724889 C422.321634,212.03296 416.122876,213.042741 410.356335,213.042741 L410.356335,213.042741 Z M342.240846,203.089459 L342.240846,125.337414 L362.56763,125.337414 L362.56763,204.24322 C362.56763,209.580634 363.720938,211.888705 368.334171,211.888705 C370.208023,211.888705 372.51464,211.888705 376.551218,210.878924 L379.578652,225.015585 C373.235457,227.756419 367.180589,228.189182 364.730083,228.189182 C342.529173,228.189182 342.240846,215.206557 342.240846,203.089459 L342.240846,203.089459 Z M294.582079,226.313875 L274.399459,226.313875 L274.399459,125.481395 L294.582079,124.039124 L294.582079,184.047873 L319.089606,152.4567 L341.002188,152.4567 L314.332209,185.778927 L346.624292,226.313875 L323.558401,226.313875 L294.582079,188.664015 L294.582079,226.313875 Z M194.333169,165.295071 C201.108855,165.295071 204.424343,170.776739 204.424343,179.575986 L204.424343,180.441513 L179.772926,180.441513 C180.493744,176.114153 183.088414,165.295071 194.333169,165.295071 L194.333169,165.295071 Z M194.909823,228.189182 C203.703525,228.189182 212.209173,226.602384 219.561513,223.428786 L216.101588,209.724889 C210.04672,212.03296 203.847962,213.042741 198.081421,213.042741 C187.846084,213.042741 179.772926,207.416818 179.628763,191.404849 L218.696532,191.404849 C219.01112,190.19032 219.311757,188.751061 219.576559,187.214354 C219.547835,188.019387 219.53279,188.838927 219.53279,189.673796 C219.53279,216.937337 235.822995,228.189182 253.987326,228.189182 C261.627993,228.189182 267.250097,226.891166 274.169673,224.871604 L271.718893,211.744451 C266.96177,212.465723 262.06021,213.186995 257.591414,213.186995 C247.067476,213.186995 238.706265,209.003617 238.706265,189.818051 C238.706265,171.930775 245.914168,166.88187 256.293942,166.88187 C260.618575,166.88187 265.375971,167.747396 270.421694,168.901432 L274.31411,154.332008 C267.39426,152.312446 261.627993,151.014156 253.987326,151.014156 C238.035508,151.014156 224.279791,159.168774 220.537831,178.496404 C220.558348,177.972216 220.570658,177.462809 220.570658,176.97968 C220.570658,160.823183 211.055865,151.014156 193.756515,151.014156 C171.411715,151.014156 160.743614,168.180159 160.743614,187.943017 C160.743614,209.292125 168.095681,228.189182 194.909823,228.189182 L194.909823,228.189182 Z" id="Fill-1-Copy"></path>
            <text id="A-MULTIMEDIA-CONSULT" font-family="Montserrat-Regular, Montserrat" font-size="22" font-weight="normal" line-spacing="24" letter-spacing="0.880000055">
                <tspan x="66" y="378">A MULTIMEDIA CONSULTANCY</tspan>
            </text>
        </g>
    </g>
</svg>