<?xml version="1.0" encoding="UTF-8"?>
<svg width="512px" height="512px" viewBox="0 0 512 512" version="1.1" xmlns="http://www.w3.org/2000/svg" xmlns:xlink="http://www.w3.org/1999/xlink">
    <!-- Generator: Sketch 48.1 (47250) - http://www.bohemiancoding.com/sketch -->
    <title>FZ_circ_color-0</title>
    <desc>Created with Sketch.</desc>
    <defs>
        <linearGradient x1="50%" y1="0%" x2="50%" y2="71.749442%" id="linearGradient-1">
            <stop stop-color="#E75960" offset="0%"></stop>
            <stop stop-color="#FE6169" offset="100%"></stop>
        </linearGradient>
    </defs>
    <g id="Logos" stroke="none" stroke-width="1" fill="none" fill-rule="evenodd">
        <g id="FZ_circ_color-0">
            <circle id="Oval-1" fill="url(#linearGradient-1)" cx="256" cy="256" r="256"></circle>
            <path d="M322.372026,339.69711 C318.889055,341.974437 314.602321,343.180081 311.387271,343.180081 C306.430735,343.180081 302.546137,340.634833 302.546137,333.937066 C302.546137,327.640672 307.9043,325.363599 315.807965,325.363599 C317.951078,325.363599 320.49658,325.497559 322.372026,325.631519 L322.372026,339.69711 Z M372.794018,340.500872 C368.507284,340.500872 367.435601,338.357505 367.435601,333.40097 L367.435601,260.125889 L348.547689,260.125889 L348.547689,332.329541 C348.547689,335.068485 348.564466,337.854455 348.886022,340.50316 C347.281293,340.904533 345.543366,341.304635 343.9394,341.304635 C342.063954,341.304635 340.590389,340.500872 340.590389,337.553743 L340.590389,309.422308 C340.590389,290.534397 333.356526,283.702415 315.272123,283.702415 C309.779746,283.702415 298.259404,285.30994 290.89158,289.730634 L294.776432,301.519151 C299.197126,300.045332 304.957171,298.705728 310.583508,298.705728 C317.683411,298.705728 322.372026,299.509491 322.372026,309.690483 L322.372026,316.25429 C317.549196,315.852408 313.262717,315.852408 309.64604,315.852408 C300.804397,315.852408 285.265242,318.799538 285.131282,335.946218 C285.131282,348.002656 292.767026,355.638146 304.957171,355.638146 C312.994796,355.638146 320.49658,352.55731 324.515393,349.2083 C326.926426,353.092898 330.677318,355.370225 336.839497,355.370225 C339.652412,355.370225 345.546671,354.834384 351.440929,351.619333 L350.105647,345.786081 C352.249522,351.488169 357.342814,355.638146 369.445261,355.638146 C371.722334,355.638146 377.348418,355.236265 383.242931,352.691017 L380.429508,339.563149 C376.67887,340.500872 374.535503,340.500872 372.794018,340.500872 L372.794018,340.500872 Z M263.992479,297.232164 C270.288619,297.232164 273.369709,302.32266 273.369709,310.493991 L273.369709,311.297754 L250.462731,311.297754 C251.132533,307.279195 253.543566,297.232164 263.992479,297.232164 L263.992479,297.232164 Z M267.47545,341.572556 C257.964515,341.572556 250.462731,336.348099 250.32877,321.478746 L286.631537,321.478746 C287.56926,317.862069 288.373023,312.101516 288.373023,308.082958 C288.373023,293.07939 279.531889,283.970336 263.456892,283.970336 C242.69328,283.970336 232.780209,299.911372 232.780209,318.26395 C232.780209,338.089585 239.612191,355.638146 264.528321,355.638146 C272.699907,355.638146 280.603572,354.164581 287.435554,351.217452 L284.220249,338.491466 C278.593912,340.634833 272.833867,341.572556 267.47545,341.572556 L267.47545,341.572556 Z M235.56745,341.170674 L237.174721,353.896661 L184.12741,353.896661 L182.51963,343.849883 L212.660472,298.170141 L185.198839,298.170141 L183.859235,285.30994 L231.950264,285.30994 L233.692004,295.758599 L203.417202,341.170674 L235.56745,341.170674 Z M118.891479,341.170674 C109.112368,341.170674 104.691674,334.472653 104.691674,327.774886 C104.691674,321.612707 108.308605,314.91494 114.738706,311.83385 L134.296419,335.276416 C129.87598,339.429189 123.981721,341.170674 118.891479,341.170674 L118.891479,341.170674 Z M165.642905,296.830282 L151.175433,296.830282 C150.505631,306.073552 147.826422,316.25429 144.343451,323.086271 L121.436727,295.490932 C117.283954,290.534397 115.006627,286.381623 115.006627,282.898652 C115.006627,277.674196 118.623304,275.93271 123.177958,275.93271 C129.474098,275.93271 137.64543,279.148015 140.458853,280.353404 L144.879293,267.359497 C135.769984,264.010487 128.000534,262.402962 120.49875,262.402962 C119.086446,262.402962 117.698037,262.495743 116.346231,262.676729 L116.346231,197.000788 L135.636278,197.000788 L135.783711,195.428087 L135.783711,252.727308 L154.537916,252.727308 L154.537916,204.100436 C157.351085,200.081623 162.441327,197.804296 169.94311,197.804296 C171.818556,197.804296 173.694002,198.072471 175.703409,198.608059 L178.784498,183.202864 C176.507171,182.667022 174.095884,182.533062 172.622319,182.533062 C162.709502,182.533062 156.279401,188.1594 152.79643,192.714054 L151.322866,184.006627 L135.783711,184.006627 L135.783711,184.140587 L116.346231,184.140587 L116.346231,182.131181 C116.346231,173.959595 117.819796,169.271234 129.742019,169.271234 C133.358951,169.271234 138.047311,169.539155 142.601966,170.610584 L146.486818,157.214796 C140.324639,155.205644 134.028753,154 128.536375,154 C107.638803,154 97.7257319,161.76945 97.7257319,180.389695 L97.7257319,184.274548 L85,185.212271 L85,196.197025 L97.5920257,197.000788 L97.5920257,281.291127 C97.5920257,289.194792 102.682268,296.294695 106.835041,301.652858 C95.850286,307.279195 87.6789543,316.120329 87.6789543,328.444434 C87.6789543,346.930973 101.744799,355.638146 118.087716,355.638146 C127.196771,355.638146 136.573747,352.289135 143.271768,345.189233 C149.299987,350.011808 160.016567,355.772106 166.044786,358.317355 L173.144434,345.859289 C168.187898,343.448002 158.944883,338.223545 153.720427,333.668891 C161.088504,323.88978 165.107063,310.762166 165.642905,296.830282 L165.642905,296.830282 Z M401.501711,196.062811 C407.797851,196.062811 410.878941,201.153307 410.878941,209.324639 L410.878941,210.128401 L387.971963,210.128401 C388.641765,206.109843 391.052798,196.062811 401.501711,196.062811 L401.501711,196.062811 Z M404.984682,240.403203 C395.473746,240.403203 387.971963,235.178746 387.838002,220.309393 L424.140769,220.309393 C425.078492,216.692716 425.882254,210.932164 425.882254,206.913605 C425.882254,191.910038 417.041121,182.800983 400.96587,182.800983 C380.202512,182.800983 370.289441,198.742019 370.289441,217.094597 C370.289441,236.920232 377.121422,254.468793 402.037553,254.468793 C410.209139,254.468793 418.112804,252.995229 424.944786,250.048099 L421.729481,237.322113 C416.103143,239.46548 410.343099,240.403203 404.984682,240.403203 L404.984682,240.403203 Z M341.690034,231.160188 L341.690034,158.956536 L360.5782,158.956536 L360.5782,232.231617 C360.5782,237.188153 361.649883,239.331519 365.936617,239.331519 C367.677848,239.331519 369.821215,239.331519 373.572107,238.393796 L376.385276,251.521664 C370.491017,254.066912 364.864679,254.468793 362.587606,254.468793 C341.957955,254.468793 341.690034,242.412609 341.690034,231.160188 L341.690034,231.160188 Z M297.404294,252.727308 L278.650088,252.727308 L278.650088,159.090242 L297.404294,157.750892 L297.404294,213.477412 L320.177312,184.140587 L340.539042,184.140587 L315.756618,215.084937 L345.763244,252.727308 L324.329831,252.727308 L297.404294,217.764145 L297.404294,252.727308 Z M204.250451,196.062811 C210.546591,196.062811 213.627427,201.153307 213.627427,209.324639 L213.627427,210.128401 L190.720703,210.128401 C191.390505,206.109843 193.801538,196.062811 204.250451,196.062811 L204.250451,196.062811 Z M204.786293,254.468793 C212.957625,254.468793 220.86129,252.995229 227.693272,250.048099 L224.478221,237.322113 C218.851884,239.46548 213.091839,240.403203 207.733422,240.403203 C198.222487,240.403203 190.720703,235.178746 190.586742,220.309393 L226.889509,220.309393 C227.181832,219.181533 227.461192,217.844979 227.707252,216.417932 C227.680562,217.165518 227.666581,217.926575 227.666581,218.701868 C227.666581,244.01988 242.803855,254.468793 259.682614,254.468793 C266.782517,254.468793 272.006719,253.263404 278.436565,251.387958 L276.159238,239.197559 C271.738798,239.867361 267.184144,240.537163 263.031625,240.537163 C253.252514,240.537163 245.483063,236.652311 245.483063,218.835829 C245.483063,202.22499 252.18083,197.536375 261.825981,197.536375 C265.84454,197.536375 270.265234,198.340138 274.953848,199.411821 L278.57078,185.882073 C272.140679,184.006627 266.782517,182.800983 259.682614,182.800983 C244.859779,182.800983 232.077616,190.373687 228.600491,208.322096 C228.619556,207.835314 228.630994,207.362258 228.630994,206.913605 C228.630994,191.910038 219.789606,182.800983 203.71461,182.800983 C182.951252,182.800983 173.038181,198.742019 173.038181,217.094597 C173.038181,236.920232 179.869908,254.468793 204.786293,254.468793 L204.786293,254.468793 Z" id="Fill-1-Copy" fill="#FFFFFF"></path>
        </g>
    </g>
</svg>